<svg width="22" height="24" viewBox="0 0 22 24" fill="none" xmlns="http://www.w3.org/2000/svg">
<path d="M8.10852 12.7075L8.093 12.6927L8.07628 12.6794C8.04459 12.6541 8.01514 12.6195 7.99201 12.5759C7.96884 12.5323 7.95321 12.482 7.94765 12.428C7.94208 12.3741 7.94691 12.3198 7.96135 12.2691C7.97578 12.2184 7.99896 12.1742 8.02731 12.1385C8.05558 12.1029 8.08786 12.0772 8.12037 12.0604C8.1527 12.0436 8.18569 12.0354 8.21758 12.0344C8.24944 12.0333 8.28231 12.0394 8.31464 12.0536C8.34715 12.0679 8.3799 12.0909 8.40934 12.1237L8.42455 12.1407L8.44124 12.1562L9.74291 13.3662L10.5833 14.1475V13V5C10.5833 4.85403 10.6369 4.72185 10.7204 4.63076C10.8026 4.54111 10.9042 4.5 11 4.5C11.0958 4.5 11.1974 4.54111 11.2796 4.63076C11.3631 4.72185 11.4167 4.85403 11.4167 5V13V14.1604L12.2601 13.3634L13.5617 12.1334L13.5768 12.1192L13.5907 12.1037C13.6201 12.0709 13.6528 12.0479 13.6854 12.0336C13.7177 12.0194 13.7506 12.0133 13.7824 12.0144C13.8143 12.0154 13.8473 12.0236 13.8796 12.0404C13.9121 12.0572 13.9444 12.0829 13.9727 12.1185C14.001 12.1542 14.0242 12.1984 14.0387 12.2491C14.0531 12.2998 14.0579 12.3541 14.0524 12.408C14.0468 12.462 14.0312 12.5123 14.008 12.5559C13.9849 12.5995 13.9554 12.6341 13.9237 12.6594L13.9082 12.6718L13.8937 12.6854L11.1646 15.2458L11.1284 15.2639L11.1204 15.27H11.1192H10.9725H10.8258H10.8246L10.8166 15.2639L10.781 15.246L8.10852 12.7075ZM18.0537 14.6308C18.1359 14.5411 18.2376 14.5 18.3333 14.5C18.4291 14.5 18.5308 14.5411 18.6129 14.6308C18.6964 14.7219 18.75 14.854 18.75 15V18C18.75 18.6764 18.5033 19.3173 18.076 19.7835C17.65 20.2482 17.082 20.5 16.5 20.5H5.5C4.918 20.5 4.35002 20.2482 3.92403 19.7835C3.49671 19.3173 3.25 18.6764 3.25 18V15C3.25 14.854 3.30356 14.7219 3.38706 14.6308C3.46923 14.5411 3.57089 14.5 3.66667 14.5C3.76244 14.5 3.8641 14.5411 3.94627 14.6308C4.02978 14.7219 4.08333 14.854 4.08333 15V18C4.08333 18.3845 4.22293 18.761 4.48324 19.045C4.74489 19.3304 5.10954 19.5 5.5 19.5H16.5C16.8905 19.5 17.2551 19.3304 17.5168 19.045C17.7771 18.761 17.9167 18.3845 17.9167 18V15C17.9167 14.854 17.9702 14.7219 18.0537 14.6308Z" fill="#56577D" stroke="#56577D"/>
</svg>
